# xmcd CD database file
#
# Track frame offsets:
#	150
#	13146
#	24914
#	38766
#	52239
#	68264
#	85192
#	97316
#	112446
#	124218
#	135612
#	153442
#
# Disc length: 2276 seconds
#
# Revision: 0
# Processed by: cddbd v1.5.2PL0 Copyright (c) Steve Scherf et al.
# Submitted via: CDex 1.51
#
DISCID=a408e20c
DTITLE=Various Artist - 100% Country CD 4
DYEAR=2006
DGENRE=Country
TTITLE0=Moonlight gambler - Frankie Laine
TTITLE1=Don't it make my brown eyes blue - Marie Williams
TTITLE2=Tom Dooley - The Kingston Trio
TTITLE3=Big Bad John - Jimmy Dean
TTITLE4=Desperado - Toni Wille
TTITLE5=Living in these troubled times - PE-TO Bandet
TTITLE6=Don't break my heart - Eddie Miller
TTITLE7=High, Wide and Handsome - John Denver
TTITLE8=Walking in the sunshine - Roger Miller
TTITLE9=Chase the moon - Willie Nelson
TTITLE10=Farmor - Ottar Big Hand Johansen
TTITLE11=Torn in between - Heidi Hauge
EXTD=YEAR: 2006
EXTT0=
EXTT1=
EXTT2=
EXTT3=
EXTT4=
EXTT5=
EXTT6=
EXTT7=
EXTT8=
EXTT9=
EXTT10=
EXTT11=
PLAYORDER=
